# xmcd
#
# Track frame offsets: 
#        150
#        11067
#        22571
#        37847
#        54680
#        68649
#        81147
#        96549
#
# Disc length: 1471 seconds
#
# Revision: 0
# Processed by: cddbd v1.5.1PL2 Copyright (c) Steve Scherf et al.
# Submitted via: ExactAudioCopy v0.95a5
#
DISCID=5705bd08
DTITLE=Eddy Raven - Shine, Shine, Shine
DYEAR=2005
DGENRE=Country
TTITLE0=I Got Mexico
TTITLE1=I'm Gonna Get You
TTITLE2=Shine, Shine, Shine
TTITLE3=Joe Knows How To Live
TTITLE4=Operator, Operator
TTITLE5=I Could Use Another You
TTITLE6=You Should Have Been Gone By Now
TTITLE7=Right Hand Man
EXTD=
EXTT0=
EXTT1=
EXTT2=
EXTT3=
EXTT4=
EXTT5=
EXTT6=
EXTT7=
PLAYORDER=
